<?xml version="1.0" encoding="UTF-8"?>
<!-- Created with Inkscape (http://www.inkscape.org/) -->
<svg width="640" height="640" version="1.1" viewBox="0 0 640 640" xmlns="http://www.w3.org/2000/svg">
 <view id="p0" viewBox="  0   0 160 160"/>
 <view id="p1" viewBox="  0 480 160 160"/>
 <view id="p2" viewBox="160   0 160 160"/>
 <view id="p3" viewBox="160 480 160 160"/>
 <view id="p4" viewBox="  0 160 160 160"/>
 <view id="p5" viewBox="  0 320 160 160"/>
 <view id="p6" viewBox="160 160 160 160"/>
 <view id="p7" viewBox="160 320 160 160"/>
 <view id="p8" viewBox="480   0 160 160"/>
 <view id="p9" viewBox="480 480 160 160"/>
 <view id="p10" viewBox="320   0 160 160"/>
 <view id="p11" viewBox="320 480 160 160"/>
 <view id="p12" viewBox="480 160 160 160"/>
 <view id="p13" viewBox="480 320 160 160"/>
 <view id="p14" viewBox="320 160 160 160"/>
 <view id="p15" viewBox="320 320 160 160"/>
 <g transform="translate(-10,-10)">
  <path id="path320" d="m90 40c27.7 0 50 22.3 50 50s-22.3 50-50 50-50-22.3-50-50 22.3-50 50-50zm160 0h320c27.7 0 50 22.3 50 50s-22.3 50-50 50h-320c-27.7 0-50-22.3-50-50s22.3-50 50-50zm-160 160c27.7 0 50 22.3 50 50v320c0 27.7-22.3 50-50 50s-50-22.3-50-50v-320c0-27.7 22.3-50 50-50zm160 0h320c27.7 0 50 22.3 50 50v320c0 27.7-22.3 50-50 50h-320c-27.7 0-50-22.3-50-50v-320c0-27.7 22.3-50 50-50zm80 100c-16.62 0-30 13.38-30 30s13.38 30 30 30 30-13.38 30-30-13.38-30-30-30zm160 0c-16.62 0-30 13.38-30 30s13.38 30 30 30 30-13.38 30-30-13.38-30-30-30zm-160 160c-16.62 0-30 13.38-30 30s13.38 30 30 30 30-13.38 30-30-13.38-30-30-30zm160 0c-16.62 0-30 13.38-30 30s13.38 30 30 30 30-13.38 30-30-13.38-30-30-30z" fill="#ffa500"/>
 </g>
</svg>
