<?xml version="1.0" encoding="UTF-8"?>
<!-- Created with Inkscape (http://www.inkscape.org/) -->
<svg width="640" height="640" version="1.1" viewBox="0 0 640 640" xmlns="http://www.w3.org/2000/svg">
    <view viewBox="  0   0 160 160" id="p0" />
    <view viewBox="  0 480 160 160" id="p1" />
    <view viewBox="160   0 160 160" id="p2" />
    <view viewBox="160 480 160 160" id="p3" />
    <view viewBox="  0 160 160 160" id="p4" />
    <view viewBox="  0 320 160 160" id="p5" />
    <view viewBox="160 160 160 160" id="p6" />
    <view viewBox="160 320 160 160" id="p7" />
    <view viewBox="480   0 160 160" id="p8" />
    <view viewBox="480 480 160 160" id="p9" />
    <view viewBox="320   0 160 160" id="p10" />
    <view viewBox="320 480 160 160" id="p11" />
    <view viewBox="480 160 160 160" id="p12" />
    <view viewBox="480 320 160 160" id="p13" />
    <view viewBox="320 160 160 160" id="p14" />
    <view viewBox="320 320 160 160" id="p15" />
    
 <path d="m60 30c-16.62 0-30 13.38-30 30v40c0 16.62 13.38 30 30 30h40c16.62 0 30-13.38 30-30v-40c0-16.62-13.38-30-30-30zm160 0c-16.62 0-30 13.38-30 30v40c0 16.62 13.38 30 30 30h360c16.62 0 30-13.38 30-30v-40c0-16.62-13.38-30-30-30zm-160 160c-16.62 0-30 13.38-30 30v360c0 16.62 13.38 30 30 30h40c16.62 0 30-13.38 30-30v-360c0-16.62-13.38-30-30-30zm260 0c-72.02 0-130 57.98-130 130v160c0 72.02 57.98 130 130 130h160c72.02 0 130-57.98 130-130v-160c0-72.02-57.98-130-130-130zm0 100h30v60h-60v-30c0-16.62 13.38-30 30-30zm130 0h30c16.62 0 30 13.38 30 30v30h-60zm-160 160h60v60h-30c-16.62 0-30-13.38-30-30zm160 0h60v30c0 16.62-13.38 30-30 30h-30z"/>
 <path d="m238.16 309.71c0.87447-6.815 2.602-13.514 5.1085-19.907l4.6532 1.8242c-2.358 6.0154-3.9847 12.319-4.8059 18.719zm14.891-37.977c2.5678-3.5975 5.4274-6.9893 8.5591-10.125 1.7369-1.7348 3.5524-3.3861 5.438-4.9505l3.1899 3.8434c-1.768 1.4679-3.4684 3.0165-5.0924 4.6426-2.9355 2.9317-5.6186 6.1121-8.0296 9.4905zm31.329-26.117c6.2016-2.9475 12.764-5.1374 19.497-6.4956l0.98836 4.8981c-6.3288 1.2775-12.506 3.3392-18.34 6.111z" fill="#ff0"/>
 <path d="m330 237.5h20v5h-20zm40 0h20v5h-20zm40 0h20v5h-20zm40 0h20v5h-20z" fill="#ff0"/>
 <path d="m740 135h20v5h-20z" fill="#ff0"/>
 <path d="m561.84 309.71c-0.87447-6.815-2.602-13.514-5.1085-19.907l-4.6532 1.8242c2.358 6.0154 3.9847 12.319 4.8059 18.719zm-14.891-37.977c-2.5678-3.5975-5.4274-6.9893-8.5591-10.125-1.7369-1.7348-3.5524-3.3861-5.438-4.9505l-3.1899 3.8434c1.768 1.4679 3.4684 3.0165 5.0924 4.6426 2.9355 2.9317 5.6186 6.1121 8.0296 9.4905zm-31.329-26.117c-6.2016-2.9475-12.764-5.1374-19.497-6.4956l-0.98836 4.8981c6.3288 1.2775 12.506 3.3392 18.34 6.111z" fill="#ff0"/>
 <path d="m238.16 490.29c0.87447 6.815 2.602 13.514 5.1085 19.907l4.6532-1.8242c-2.358-6.0154-3.9847-12.319-4.8059-18.719zm14.891 37.977c2.5678 3.5975 5.4274 6.9893 8.5591 10.125 1.7369 1.7348 3.5524 3.3861 5.438 4.9505l3.1899-3.8434c-1.768-1.4679-3.4684-3.0165-5.0924-4.6426-2.9355-2.9317-5.6186-6.1121-8.0296-9.4905zm31.329 26.117c6.2016 2.9475 12.764 5.1374 19.497 6.4956l0.98836-4.8981c-6.3288-1.2775-12.506-3.3392-18.34-6.111z" fill="#ff0"/>
 <path d="m330 562.5h20v-5h-20zm40 0h20v-5h-20zm40 0h20v-5h-20zm40 0h20v-5h-20z" fill="#ff0"/>
 <path d="m561.84 490.29c-0.87447 6.815-2.602 13.514-5.1085 19.907l-4.6532-1.8242c2.358-6.0154 3.9847-12.319 4.8059-18.719zm-14.891 37.977c-2.5678 3.5975-5.4274 6.9893-8.5591 10.125-1.7369 1.7348-3.5524 3.3861-5.438 4.9505l-3.1899-3.8434c1.768-1.4679 3.4684-3.0165 5.0924-4.6426 2.9355-2.9317 5.6186-6.1121 8.0296-9.4905zm-31.329 26.117c-6.2016 2.9475-12.764 5.1374-19.497 6.4956l-0.98836-4.8981c6.3288-1.2775 12.506-3.3392 18.34-6.111z" fill="#ff0"/>
 <path d="m237.5 470v-20h5v20zm0-40v-20h5v20zm0-40v-20h5v20zm0-40v-20h5v20z" fill="#ff0"/>
 <path d="m562.5 470v-20h-5v20zm0-40v-20h-5v20zm0-40v-20h-5v20zm0-40v-20h-5v20z" fill="#ff0"/>
 <path d="m402.5 238v21.467h-5v-21.467zm0 42.933v21.467h-5v-21.467zm0 42.933v21.467h-5v-21.467zm0 42.933v21.467h-5v-21.467zm0 42.933v21.467h-5v-21.467zm0 42.933v21.467h-5v-21.467zm0 42.933v21.467h-5v-21.467zm0 42.933v21.467h-5v-21.467z" fill="#ff0"/>
 <path transform="rotate(90 400 399)" d="m402.5 238v21.467h-5v-21.467zm0 42.933v21.467h-5v-21.467zm0 42.933v21.467h-5v-21.467zm0 42.933v21.467h-5v-21.467zm0 42.933v21.467h-5v-21.467zm0 42.933v21.467h-5v-21.467zm0 42.933v21.467h-5v-21.467zm0 42.933v21.467h-5v-21.467z" fill="#ff0"/>
 <path d="m82.5 238v21.467h-5v-21.467zm0 42.933v21.467h-5v-21.467zm0 42.933v21.467h-5v-21.467zm0 42.933v21.467h-5v-21.467zm0 42.933v21.467h-5v-21.467zm0 42.933v21.467h-5v-21.467zm0 42.933v21.467h-5v-21.467zm0 42.933v21.467h-5v-21.467z" fill="#ff0"/>
 <path d="m561 82.5h-21.467v-5h21.467zm-42.933 0h-21.467v-5h21.467zm-42.933 0h-21.467v-5h21.467zm-42.933 0h-21.467v-5h21.467zm-42.933 0h-21.467v-5h21.467zm-42.933 0h-21.467v-5h21.467zm-42.933 0h-21.467v-5h21.467zm-42.933 0h-21.467v-5h21.467z" fill="#ff0"/>
</svg>
